<svg xml:space="preserve" viewBox="0 0 193.6 206.8" y="0px" x="0px" xmlns:xlink="http://www.w3.org/1999/xlink" xmlns="http://www.w3.org/2000/svg" id="Layer_1" version="1.1">
<rect height="195.7" width="181.2" stroke-miterlimit="10" stroke="#007575" fill="#FFFFFF" transform="matrix(0.9982 5.974808e-002 -5.974808e-002 0.9982 6.3653 -5.5995)" y="5.8" x="6.2"></rect>
<rect height="11.7" width="53.2" fill="#B0D400" transform="matrix(0.9975 7.020890e-002 -7.020890e-002 0.9975 10.1283 -5.4765)" y="135.5" x="56.4"></rect>
<path d="M101.9,95.4c-26.3-1.9-52.1-3.7-65.9-4.6L40.4,27c14.2,1,37.3,2.6,65.9,4.6c13.9,1,28.8,13.8,27.3,35.5
	C132.2,87.6,111.3,96.1,101.9,95.4z" fill="#B0D400"></path>
<circle r="15.4" cy="62.3" cx="99.9" fill="#FFFFFF"></circle>
<path d="M138.6,158.6l-47.3-3.3l2-28.1l-17.9-1.3
	c-7-0.5-12.2-6.5-11.7-13.5l1.3-17.9l-18.2-1.3l7.3-37.9l0.1-0.4c0.8-12,6.3-23,15.4-30.9c9.1-7.9,20.7-11.8,32.7-10.9l0,0l1.5,0.1
	c24.8,1.7,43.6,23.4,41.8,48.1L138.6,158.6L138.6,158.6z" stroke-miterlimit="10" stroke-width="2" stroke="#007575" fill="none"></path>
<g>
	<circle r="21.6" cy="62" cx="100.5" stroke-miterlimit="10" stroke-width="2" stroke="#007575" fill="none"></circle>
	<line y2="34.1" x2="102.4" y1="40.4" x1="102" stroke-miterlimit="10" stroke-width="2" stroke="#007575" fill="none"></line>
	<line y2="43.6" x2="122.4" y1="47.9" x1="117.7" stroke-miterlimit="10" stroke-width="2" stroke="#007575" fill="none"></line>
	<line y2="76.7" x2="84.2" y1="81.1" x1="79.5" stroke-miterlimit="10" stroke-width="2" stroke="#007575" fill="none"></line>
	<line y2="83.8" x2="98.9" y1="90.2" x1="98.5" stroke-miterlimit="10" stroke-width="2" stroke="#007575" fill="none"></line>
	<line y2="63.9" x2="127.6" y1="63.5" x1="122.1" stroke-miterlimit="10" stroke-width="2" stroke="#007575" fill="none"></line>
	<line y2="60.5" x2="78.9" y1="60.1" x1="73.4" stroke-miterlimit="10" stroke-width="2" stroke="#007575" fill="none"></line>
	<line y2="45.4" x2="86" y1="41" x1="82.7" stroke-miterlimit="10" stroke-width="2" stroke="#007575" fill="none"></line>
	<line y2="83.3" x2="118.9" y1="78.9" x1="115.6" stroke-miterlimit="10" stroke-width="2" stroke="#007575" fill="none"></line>
</g>
<circle r="5.6" cy="62" cx="99.9" stroke-miterlimit="10" stroke-width="2.0239" stroke="#CCCCCC" fill="none"></circle>
<rect height="9.6" width="37.2" fill="#B0D400" transform="matrix(0.9975 7.020890e-002 -7.020890e-002 0.9975 9.1891 -9.5454)" y="121.2" x="121.8"></rect>
<line y2="57.9" x2="42" y1="59.8" x1="69.4" stroke-dasharray="4.1694" stroke-miterlimit="10" stroke-width="2.5016" stroke="#007575" fill="#007575"></line>
<g>
	<path d="M43.3,193.5l2.4-34.1l6.8,0.5l6.4,24.7c0.6,2.3,1,4,1.3,5.2c0.5-1.2,1.2-3,2.2-5.3l9.8-23.2l6.1,0.4
		l-2.4,34.1l-4.4-0.3l2-28.6l-11.9,27.9l-4.1-0.3l-7.8-29.8l-2,29.1L43.3,193.5z" fill="#007575"></path>
	<path d="M83,196.3l2.4-34.1l12.8,0.9c2.6,0.2,4.7,0.7,6.2,1.5c1.5,0.8,2.7,2,3.5,3.5c0.8,1.5,1.1,3,1,4.6
		c-0.1,1.5-0.6,2.8-1.5,4s-2.2,2.2-3.8,2.9c2,0.8,3.5,1.9,4.5,3.4s1.4,3.3,1.3,5.3c-0.1,1.6-0.6,3.1-1.3,4.4s-1.7,2.3-2.7,3
		c-1,0.7-2.3,1.2-3.9,1.4c-1.5,0.3-3.4,0.3-5.5,0.2L83,196.3z M87.8,192.6l8.5,0.6c1.5,0.1,2.5,0.1,3.1,0.1c1.1-0.1,1.9-0.4,2.7-0.7
		s1.3-1,1.9-1.8c0.5-0.8,0.8-1.7,0.9-2.8c0.1-1.3-0.2-2.4-0.7-3.4c-0.6-1-1.4-1.7-2.6-2.2c-1.1-0.5-2.8-0.8-5-0.9l-7.9-0.6
		L87.8,192.6z M88.9,176.9l7.4,0.5c2,0.1,3.4,0.1,4.3-0.1c1.2-0.3,2.1-0.8,2.7-1.5c0.6-0.8,1-1.7,1.1-2.9c0.1-1.1-0.1-2.2-0.6-3.1
		c-0.5-0.9-1.2-1.5-2.2-1.9c-1-0.4-2.7-0.7-5.2-0.8l-6.8-0.5L88.9,176.9z" fill="#007575"></path>
	<path d="M123.7,199.2l2.1-30.1l-11.2-0.8l0.3-4l27.1,1.9l-0.3,4l-11.3-0.8l-2.1,30.1L123.7,199.2z" fill="#007575"></path>
	<path d="M144.9,200.7l2.4-34.1l4.5,0.3l-2.4,34.1L144.9,200.7z" fill="#007575"></path>
</g>
</svg>
